<mxfile host="app.diagrams.net" modified="2021-09-01T09:31:32.599Z" agent="5.0 (Windows NT 10.0; Win64; x64) AppleWebKit/537.36 (KHTML, like Gecko) Chrome/93.0.4577.58 Safari/537.36 Edg/93.0.961.33" etag="ehTDVHphnRkGaHtRTwqS" version="15.0.4" type="github">
  <diagram id="3wDe9cms8Io3K9izOVTr" name="Page-1">
    <mxGraphModel dx="1038" dy="618" grid="1" gridSize="10" guides="1" tooltips="1" connect="1" arrows="1" fold="1" page="1" pageScale="1" pageWidth="850" pageHeight="1100" math="0" shadow="0">
      <root>
        <mxCell id="0" />
        <mxCell id="1" parent="0" />
        <mxCell id="smyybT_3iR8iWfGHzy_B-1" value="hi" style="rounded=0;whiteSpace=wrap;html=1;" vertex="1" parent="1">
          <mxGeometry x="230" y="250" width="120" height="60" as="geometry" />
        </mxCell>
      </root>
    </mxGraphModel>
  </diagram>
</mxfile>
